<svg xmlns="http://www.w3.org/2000/svg" version="1.1" xmlns:xlink="http://www.w3.org/1999/xlink" xmlns:svgjs="http://svgjs.dev/svgjs" width="1440" height="800" preserveAspectRatio="none" viewBox="0 0 1440 800"><g mask="url(&quot;#SvgjsMask1033&quot;)" fill="none"><path d="M 0,6 C 96,33.8 288,142 480,145 C 672,148 768,22.4 960,21 C 1152,19.6 1344,114.6 1440,138L1440 800L0 800z" fill="rgba(241, 113, 161, 1)"></path><path d="M 0,233 C 96,239.2 288,266.8 480,264 C 672,261.2 768,212.6 960,219 C 1152,225.4 1344,280.6 1440,296L1440 800L0 800z" fill="rgba(173, 46, 149, 1)"></path><path d="M 0,415 C 96,408.6 288,378.6 480,383 C 672,387.4 768,447 960,437 C 1152,427 1344,353.8 1440,333L1440 800L0 800z" fill="rgba(178, 155, 199, 1)"></path><path d="M 0,635 C 57.6,610.6 172.8,526.6 288,513 C 403.2,499.4 460.8,560 576,567 C 691.2,574 748.8,537.2 864,548 C 979.2,558.8 1036.8,624.8 1152,621 C 1267.2,617.2 1382.4,547.4 1440,529L1440 800L0 800z" fill="rgba(230, 66, 152, 1)"></path><path d="M 0,721 C 96,707 288,636.6 480,651 C 672,665.4 768,784.4 960,793 C 1152,801.6 1344,713.8 1440,694L1440 800L0 800z" fill="rgba(161, 194, 209, 1)"></path></g><defs><mask id="SvgjsMask1033"><rect width="1440" height="800" fill="#ffffff"></rect></mask></defs></svg>