<svg xmlns="http://www.w3.org/2000/svg" version="1.1" xmlns:xlink="http://www.w3.org/1999/xlink" xmlns:svgjs="http://svgjs.dev/svgjs" width="1466" height="800" preserveAspectRatio="none" viewBox="0 0 1466 800"><g mask="url(&quot;#SvgjsMask1112&quot;)" fill="none"><path d="M 0,1 C 97.8,19.2 293.4,89.4 489,92 C 684.6,94.6 782.6,17.8 978,14 C 1173.4,10.2 1368.4,61.2 1466,73L1466 800L0 800z" fill="#d7219a"></path><path d="M 0,187 C 97.8,176.2 293.4,136.8 489,133 C 684.6,129.2 782.6,169.6 978,168 C 1173.4,166.4 1368.4,133.6 1466,125L1466 800L0 800z" fill="rgba(241, 113, 161, 1)"></path><path d="M 0,274 C 97.8,267.8 293.4,240.6 489,243 C 684.6,245.4 782.6,289.2 978,286 C 1173.4,282.8 1368.4,238.8 1466,227L1466 800L0 800z" fill="rgba(173, 46, 149, 1)"></path><path d="M 0,359 C 97.8,350 293.4,309 489,314 C 684.6,319 782.6,381.2 978,384 C 1173.4,386.8 1368.4,339.2 1466,328L1466 800L0 800z" fill="rgba(178, 155, 199, 1)"></path><path d="M 0,405 C 97.8,419.4 293.4,476.8 489,477 C 684.6,477.2 782.6,411 978,406 C 1173.4,401 1368.4,442.8 1466,452L1466 800L0 800z" fill="rgba(241, 113, 161, 1)"></path><path d="M 0,569 C 97.8,555.8 293.4,505.4 489,503 C 684.6,500.6 782.6,552.4 978,557 C 1173.4,561.6 1368.4,532.2 1466,526L1466 800L0 800z" fill="rgba(173, 46, 149, 1)"></path><path d="M 0,626 C 97.8,633.8 293.4,665.4 489,665 C 684.6,664.6 782.6,626.4 978,624 C 1173.4,621.6 1368.4,647.2 1466,653L1466 800L0 800z" fill="rgba(178, 155, 199, 1)"></path><path d="M 0,724 C 58.8,734.6 176.4,781.4 294,777 C 411.6,772.6 470.4,702.2 588,702 C 705.6,701.8 764.4,766.6 882,776 C 999.6,785.4 1059.2,745 1176,749 C 1292.8,753 1408,786.6 1466,796L1466 800L0 800z" fill="rgba(230, 66, 152, 1)"></path></g><defs><mask id="SvgjsMask1112"><rect width="1466" height="800" fill="#ffffff"></rect></mask></defs></svg>